<svg width="256" height="256" viewBox="0 0 256 256" fill="none" xmlns="http://www.w3.org/2000/svg">
<rect width="256" height="256" rx="60" fill="url(#paint0_linear_57_36)"/>
<rect x="7.5" y="7.5" width="241" height="241" rx="52.5" stroke="white" stroke-opacity="0.02" stroke-width="15"/>
<g opacity="0.3">
<path fill-rule="evenodd" clip-rule="evenodd" d="M205.5 138V113C205.5 95.325 205.5 86.4813 200.006 80.9938C194.85 75.8313 186.737 75.5188 171.125 75.5V175.5C186.737 175.481 194.85 175.169 200.006 170.006C205.5 164.519 205.5 155.669 205.5 138ZM186.75 106.756C188.408 106.756 189.997 107.415 191.169 108.587C192.342 109.759 193 111.349 193 113.006C193 114.664 192.342 116.254 191.169 117.426C189.997 118.598 188.408 119.256 186.75 119.256C185.092 119.256 183.503 118.598 182.331 117.426C181.158 116.254 180.5 114.664 180.5 113.006C180.5 111.349 181.158 109.759 182.331 108.587C183.503 107.415 185.092 106.756 186.75 106.756ZM186.75 131.756C188.408 131.756 189.997 132.415 191.169 133.587C192.342 134.759 193 136.349 193 138.006C193 139.664 192.342 141.254 191.169 142.426C189.997 143.598 188.408 144.256 186.75 144.256C185.092 144.256 183.503 143.598 182.331 142.426C181.158 141.254 180.5 139.664 180.5 138.006C180.5 136.349 181.158 134.759 182.331 133.587C183.503 132.415 185.092 131.756 186.75 131.756Z" fill="url(#paint1_linear_57_36)"/>
<path d="M165.312 59.8L151.844 75.5H161.75V175.5H118C100.325 175.5 91.4812 175.5 85.9937 170.006C80.5 164.519 80.5 155.675 80.5 138.006V113.006C80.5 95.3188 80.5 86.4813 85.9937 80.9938C91.4812 75.5 100.325 75.5 118 75.5H134.15L120.687 59.8C119.926 58.8511 119.563 57.6432 119.676 56.4316C119.788 55.22 120.368 54.0997 121.291 53.3076C122.215 52.5154 123.41 52.1135 124.625 52.1867C125.84 52.2599 126.978 52.8026 127.8 53.7L143 71.425L158.187 53.7C158.996 52.7552 160.148 52.1704 161.388 52.0743C162.628 51.9781 163.855 52.3786 164.8 53.1875C165.745 53.9964 166.33 55.1475 166.426 56.3876C166.522 57.6277 166.121 58.8552 165.312 59.8Z" fill="url(#paint2_linear_57_36)"/>
</g>
<g opacity="0.3">
<path fill-rule="evenodd" clip-rule="evenodd" d="M195.5 148V123C195.5 105.325 195.5 96.4813 190.006 90.9938C184.85 85.8313 176.737 85.5188 161.125 85.5V185.5C176.737 185.481 184.85 185.169 190.006 180.006C195.5 174.519 195.5 165.669 195.5 148ZM176.75 116.756C178.408 116.756 179.997 117.415 181.169 118.587C182.342 119.759 183 121.349 183 123.006C183 124.664 182.342 126.254 181.169 127.426C179.997 128.598 178.408 129.256 176.75 129.256C175.092 129.256 173.503 128.598 172.331 127.426C171.158 126.254 170.5 124.664 170.5 123.006C170.5 121.349 171.158 119.759 172.331 118.587C173.503 117.415 175.092 116.756 176.75 116.756ZM176.75 141.756C178.408 141.756 179.997 142.415 181.169 143.587C182.342 144.759 183 146.349 183 148.006C183 149.664 182.342 151.254 181.169 152.426C179.997 153.598 178.408 154.256 176.75 154.256C175.092 154.256 173.503 153.598 172.331 152.426C171.158 151.254 170.5 149.664 170.5 148.006C170.5 146.349 171.158 144.759 172.331 143.587C173.503 142.415 175.092 141.756 176.75 141.756Z" fill="url(#paint3_linear_57_36)"/>
<path d="M155.312 69.8L141.844 85.5H151.75V185.5H108C90.325 185.5 81.4812 185.5 75.9937 180.006C70.5 174.519 70.5 165.675 70.5 148.006V123.006C70.5 105.319 70.5 96.4813 75.9937 90.9938C81.4812 85.5 90.325 85.5 108 85.5H124.15L110.687 69.8C109.926 68.8511 109.563 67.6432 109.676 66.4316C109.788 65.22 110.368 64.0997 111.291 63.3076C112.215 62.5154 113.41 62.1135 114.625 62.1867C115.84 62.2599 116.978 62.8026 117.8 63.7L133 81.425L148.187 63.7C148.996 62.7552 150.148 62.1704 151.388 62.0743C152.628 61.9781 153.855 62.3786 154.8 63.1875C155.745 63.9964 156.33 65.1475 156.426 66.3876C156.522 67.6277 156.121 68.8552 155.312 69.8Z" fill="url(#paint4_linear_57_36)"/>
</g>
<path fill-rule="evenodd" clip-rule="evenodd" d="M185.5 158V133C185.5 115.325 185.5 106.481 180.006 100.994C174.85 95.8313 166.737 95.5188 151.125 95.5V195.5C166.737 195.481 174.85 195.169 180.006 190.006C185.5 184.519 185.5 175.669 185.5 158ZM166.75 126.756C168.408 126.756 169.997 127.415 171.169 128.587C172.342 129.759 173 131.349 173 133.006C173 134.664 172.342 136.254 171.169 137.426C169.997 138.598 168.408 139.256 166.75 139.256C165.092 139.256 163.503 138.598 162.331 137.426C161.158 136.254 160.5 134.664 160.5 133.006C160.5 131.349 161.158 129.759 162.331 128.587C163.503 127.415 165.092 126.756 166.75 126.756ZM166.75 151.756C168.408 151.756 169.997 152.415 171.169 153.587C172.342 154.759 173 156.349 173 158.006C173 159.664 172.342 161.254 171.169 162.426C169.997 163.598 168.408 164.256 166.75 164.256C165.092 164.256 163.503 163.598 162.331 162.426C161.158 161.254 160.5 159.664 160.5 158.006C160.5 156.349 161.158 154.759 162.331 153.587C163.503 152.415 165.092 151.756 166.75 151.756Z" fill="url(#paint5_linear_57_36)"/>
<path d="M145.312 79.8L131.844 95.5H141.75V195.5H98C80.325 195.5 71.4812 195.5 65.9937 190.006C60.5 184.519 60.5 175.675 60.5 158.006V133.006C60.5 115.319 60.5 106.481 65.9937 100.994C71.4812 95.5 80.325 95.5 98 95.5H114.15L100.687 79.8C99.9258 78.8511 99.563 77.6432 99.6756 76.4316C99.7883 75.22 100.368 74.0997 101.291 73.3076C102.215 72.5154 103.41 72.1135 104.625 72.1867C105.84 72.26 106.978 72.8026 107.8 73.7L123 91.425L138.187 73.7C138.996 72.7552 140.148 72.1704 141.388 72.0743C142.628 71.9781 143.855 72.3786 144.8 73.1875C145.745 73.9964 146.33 75.1475 146.426 76.3876C146.522 77.6277 146.121 78.8552 145.312 79.8Z" fill="url(#paint6_linear_57_36)"/>
<defs>
<linearGradient id="paint0_linear_57_36" x1="128" y1="0" x2="128" y2="256" gradientUnits="userSpaceOnUse">
<stop stop-color="#333333"/>
<stop offset="1" stop-color="#141414"/>
</linearGradient>
<linearGradient id="paint1_linear_57_36" x1="188.312" y1="75.5" x2="188.312" y2="175.5" gradientUnits="userSpaceOnUse">
<stop stop-color="#617764" stop-opacity="0.72"/>
<stop offset="1" stop-color="#54E460"/>
</linearGradient>
<linearGradient id="paint2_linear_57_36" x1="123.47" y1="52.0602" x2="123.47" y2="175.5" gradientUnits="userSpaceOnUse">
<stop stop-color="#617764" stop-opacity="0.72"/>
<stop offset="1" stop-color="#54E460"/>
</linearGradient>
<linearGradient id="paint3_linear_57_36" x1="178.312" y1="85.5" x2="178.312" y2="185.5" gradientUnits="userSpaceOnUse">
<stop stop-color="#617764" stop-opacity="0.72"/>
<stop offset="1" stop-color="#54E460"/>
</linearGradient>
<linearGradient id="paint4_linear_57_36" x1="113.47" y1="62.0602" x2="113.47" y2="185.5" gradientUnits="userSpaceOnUse">
<stop stop-color="#617764" stop-opacity="0.72"/>
<stop offset="1" stop-color="#54E460"/>
</linearGradient>
<linearGradient id="paint5_linear_57_36" x1="168.312" y1="95.5" x2="168.312" y2="195.5" gradientUnits="userSpaceOnUse">
<stop stop-color="#617764" stop-opacity="0.72"/>
<stop offset="1" stop-color="#54E460"/>
</linearGradient>
<linearGradient id="paint6_linear_57_36" x1="103.47" y1="72.0602" x2="103.47" y2="195.5" gradientUnits="userSpaceOnUse">
<stop stop-color="#617764" stop-opacity="0.72"/>
<stop offset="1" stop-color="#54E460"/>
</linearGradient>
</defs>
</svg>
