<svg width="256" height="256" viewBox="0 0 256 256" fill="none" xmlns="http://www.w3.org/2000/svg">
<rect width="256" height="256" rx="60" fill="url(#paint0_linear_57_29)"/>
<rect x="7.5" y="7.5" width="241" height="241" rx="52.5" stroke="white" stroke-opacity="0.02" stroke-width="15"/>
<g opacity="0.3">
<path fill-rule="evenodd" clip-rule="evenodd" d="M113 55.5C108.027 55.5 103.258 57.4754 99.7417 60.9917C96.2254 64.5081 94.25 69.2772 94.25 74.25V174.25C94.2506 175.315 94.5232 176.362 95.0422 177.292C95.5611 178.222 96.309 179.004 97.215 179.564C98.1209 180.123 99.1549 180.442 100.219 180.49C101.283 180.538 102.341 180.314 103.294 179.837L138 162.488L172.706 179.837C173.659 180.314 174.717 180.538 175.781 180.49C176.845 180.442 177.879 180.123 178.785 179.564C179.691 179.004 180.439 178.222 180.958 177.292C181.477 176.362 181.749 175.315 181.75 174.25V74.25C181.75 69.2772 179.775 64.5081 176.258 60.9917C172.742 57.4754 167.973 55.5 163 55.5H113Z" fill="url(#paint1_linear_57_29)"/>
</g>
<g opacity="0.49">
<path fill-rule="evenodd" clip-rule="evenodd" d="M103 65.5C98.0272 65.5 93.2581 67.4754 89.7417 70.9917C86.2254 74.5081 84.25 79.2772 84.25 84.25V184.25C84.2506 185.315 84.5232 186.362 85.0422 187.292C85.5611 188.222 86.309 189.004 87.215 189.564C88.1209 190.123 89.1549 190.442 90.2188 190.49C91.2827 190.538 92.3411 190.314 93.2938 189.837L128 172.488L162.706 189.837C163.659 190.314 164.717 190.538 165.781 190.49C166.845 190.442 167.879 190.123 168.785 189.564C169.691 189.004 170.439 188.222 170.958 187.292C171.477 186.362 171.749 185.315 171.75 184.25V84.25C171.75 79.2772 169.775 74.5081 166.258 70.9917C162.742 67.4754 157.973 65.5 153 65.5H103Z" fill="url(#paint2_linear_57_29)"/>
</g>
<path fill-rule="evenodd" clip-rule="evenodd" d="M93 75.5C88.0272 75.5 83.2581 77.4754 79.7417 80.9917C76.2254 84.5081 74.25 89.2772 74.25 94.25V194.25C74.2506 195.315 74.5232 196.362 75.0422 197.292C75.5611 198.222 76.309 199.004 77.215 199.564C78.1209 200.123 79.1549 200.442 80.2188 200.49C81.2827 200.538 82.3411 200.314 83.2938 199.837L118 182.488L152.706 199.837C153.659 200.314 154.717 200.538 155.781 200.49C156.845 200.442 157.879 200.123 158.785 199.564C159.691 199.004 160.439 198.222 160.958 197.292C161.477 196.362 161.749 195.315 161.75 194.25V94.25C161.75 89.2772 159.775 84.5081 156.258 80.9917C152.742 77.4754 147.973 75.5 143 75.5H93Z" fill="url(#paint3_linear_57_29)"/>
<defs>
<linearGradient id="paint0_linear_57_29" x1="128" y1="0" x2="128" y2="256" gradientUnits="userSpaceOnUse">
<stop stop-color="#333333"/>
<stop offset="1" stop-color="#141414"/>
</linearGradient>
<linearGradient id="paint1_linear_57_29" x1="138" y1="55.5" x2="138" y2="180.497" gradientUnits="userSpaceOnUse">
<stop stop-color="#776177" stop-opacity="0.72"/>
<stop offset="1" stop-color="#D06BFF"/>
</linearGradient>
<linearGradient id="paint2_linear_57_29" x1="128" y1="65.5" x2="128" y2="190.497" gradientUnits="userSpaceOnUse">
<stop stop-color="#776177" stop-opacity="0.72"/>
<stop offset="1" stop-color="#D06BFF"/>
</linearGradient>
<linearGradient id="paint3_linear_57_29" x1="118" y1="75.5" x2="118" y2="200.497" gradientUnits="userSpaceOnUse">
<stop stop-color="#776177" stop-opacity="0.72"/>
<stop offset="1" stop-color="#D06BFF"/>
</linearGradient>
</defs>
</svg>
