<svg width="256" height="256" viewBox="0 0 256 256" fill="none" xmlns="http://www.w3.org/2000/svg">
<rect width="256" height="256" rx="60" fill="url(#paint0_linear_57_34)"/>
<rect x="7.5" y="7.5" width="241" height="241" rx="52.5" stroke="white" stroke-opacity="0.02" stroke-width="15"/>
<g opacity="0.3">
<path d="M181.75 124.25H94.25C87.375 124.25 81.75 129.875 81.75 136.75V161.75C81.75 168.625 87.375 174.25 94.25 174.25H181.75C188.625 174.25 194.25 168.625 194.25 161.75V136.75C194.25 129.875 188.625 124.25 181.75 124.25ZM106.75 161.75C99.875 161.75 94.25 156.125 94.25 149.25C94.25 142.375 99.875 136.75 106.75 136.75C113.625 136.75 119.25 142.375 119.25 149.25C119.25 156.125 113.625 161.75 106.75 161.75ZM181.75 61.75H94.25C87.375 61.75 81.75 67.375 81.75 74.25V99.25C81.75 106.125 87.375 111.75 94.25 111.75H181.75C188.625 111.75 194.25 106.125 194.25 99.25V74.25C194.25 67.375 188.625 61.75 181.75 61.75ZM106.75 99.25C99.875 99.25 94.25 93.625 94.25 86.75C94.25 79.875 99.875 74.25 106.75 74.25C113.625 74.25 119.25 79.875 119.25 86.75C119.25 93.625 113.625 99.25 106.75 99.25Z" fill="url(#paint1_linear_57_34)"/>
</g>
<g opacity="0.49">
<path d="M171.75 134.25H84.25C77.375 134.25 71.75 139.875 71.75 146.75V171.75C71.75 178.625 77.375 184.25 84.25 184.25H171.75C178.625 184.25 184.25 178.625 184.25 171.75V146.75C184.25 139.875 178.625 134.25 171.75 134.25ZM96.75 171.75C89.875 171.75 84.25 166.125 84.25 159.25C84.25 152.375 89.875 146.75 96.75 146.75C103.625 146.75 109.25 152.375 109.25 159.25C109.25 166.125 103.625 171.75 96.75 171.75ZM171.75 71.75H84.25C77.375 71.75 71.75 77.375 71.75 84.25V109.25C71.75 116.125 77.375 121.75 84.25 121.75H171.75C178.625 121.75 184.25 116.125 184.25 109.25V84.25C184.25 77.375 178.625 71.75 171.75 71.75ZM96.75 109.25C89.875 109.25 84.25 103.625 84.25 96.75C84.25 89.875 89.875 84.25 96.75 84.25C103.625 84.25 109.25 89.875 109.25 96.75C109.25 103.625 103.625 109.25 96.75 109.25Z" fill="url(#paint2_linear_57_34)"/>
</g>
<path d="M161.75 144.25H74.25C67.375 144.25 61.75 149.875 61.75 156.75V181.75C61.75 188.625 67.375 194.25 74.25 194.25H161.75C168.625 194.25 174.25 188.625 174.25 181.75V156.75C174.25 149.875 168.625 144.25 161.75 144.25ZM86.75 181.75C79.875 181.75 74.25 176.125 74.25 169.25C74.25 162.375 79.875 156.75 86.75 156.75C93.625 156.75 99.25 162.375 99.25 169.25C99.25 176.125 93.625 181.75 86.75 181.75ZM161.75 81.75H74.25C67.375 81.75 61.75 87.375 61.75 94.25V119.25C61.75 126.125 67.375 131.75 74.25 131.75H161.75C168.625 131.75 174.25 126.125 174.25 119.25V94.25C174.25 87.375 168.625 81.75 161.75 81.75ZM86.75 119.25C79.875 119.25 74.25 113.625 74.25 106.75C74.25 99.875 79.875 94.25 86.75 94.25C93.625 94.25 99.25 99.875 99.25 106.75C99.25 113.625 93.625 119.25 86.75 119.25Z" fill="url(#paint3_linear_57_34)"/>
<defs>
<linearGradient id="paint0_linear_57_34" x1="128" y1="0" x2="128" y2="256" gradientUnits="userSpaceOnUse">
<stop stop-color="#333333"/>
<stop offset="1" stop-color="#141414"/>
</linearGradient>
<linearGradient id="paint1_linear_57_34" x1="138" y1="61.75" x2="138" y2="174.25" gradientUnits="userSpaceOnUse">
<stop stop-color="#61776A" stop-opacity="0.72"/>
<stop offset="1" stop-color="#85FFAE"/>
</linearGradient>
<linearGradient id="paint2_linear_57_34" x1="128" y1="71.75" x2="128" y2="184.25" gradientUnits="userSpaceOnUse">
<stop stop-color="#61776A" stop-opacity="0.72"/>
<stop offset="1" stop-color="#85FFAE"/>
</linearGradient>
<linearGradient id="paint3_linear_57_34" x1="118" y1="81.75" x2="118" y2="194.25" gradientUnits="userSpaceOnUse">
<stop stop-color="#61776A" stop-opacity="0.72"/>
<stop offset="1" stop-color="#85FFAE"/>
</linearGradient>
</defs>
</svg>
