<svg width="256" height="256" viewBox="0 0 256 256" fill="none" xmlns="http://www.w3.org/2000/svg">
<rect width="256" height="256" rx="60" fill="url(#paint0_linear_57_93)"/>
<rect x="7.5" y="7.5" width="241" height="241" rx="52.5" stroke="white" stroke-opacity="0.02" stroke-width="15"/>
<g opacity="0.3">
<path fill-rule="evenodd" clip-rule="evenodd" d="M106.75 47.6875C109.615 47.6875 112.275 47.7219 114.731 47.7906C114.288 53.2375 114.813 60.8563 115.331 66.5156C115.675 70.3197 117.343 73.8825 120.044 76.5831C122.745 79.2836 126.308 80.9507 130.112 81.2937C134.747 81.7187 140.697 82.1469 145.691 82.0438C145.745 84.3 145.781 86.7198 145.8 89.3031C144.779 89.4031 143.825 89.5042 142.937 89.6062C131.728 90.9125 123.259 99.6688 122.125 110.75C121.541 116.478 120.959 125.231 120.837 137.978C116.145 138.209 111.448 138.32 106.75 138.312C95.0937 138.312 86.875 137.703 81.5219 137.081C74.7281 136.291 69.6437 131.05 68.9531 124.3C68.3281 118.219 67.6875 108.25 67.6875 93C67.6875 77.75 68.3312 67.7813 68.9531 61.7031C69.6406 54.95 74.7281 49.7094 81.5219 48.9219C86.8719 48.2937 95.0906 47.6875 106.75 47.6875ZM134.206 59.8844C139.287 65.1844 142.156 69.5625 143.766 72.6875C139.881 72.6625 135.209 72.3469 130.969 71.9562C129.345 71.8135 127.823 71.1035 126.671 69.951C125.518 68.7984 124.808 67.2768 124.666 65.6531C124.216 60.7656 123.863 55.3031 123.947 51.1344C126.716 52.9437 130.191 55.6969 134.206 59.8844ZM177.228 97.7906C174.569 97.7213 171.91 97.6869 169.25 97.6875C157.594 97.6875 149.375 98.2969 144.022 98.9187C137.228 99.7094 132.144 104.95 131.453 111.7C130.828 117.781 130.188 127.75 130.188 143C130.188 158.25 130.831 168.219 131.453 174.297C132.141 181.05 137.228 186.291 144.022 187.078C149.372 187.703 157.591 188.312 169.25 188.312C180.909 188.312 189.125 187.703 194.478 187.081C201.272 186.291 206.356 181.05 207.047 174.3C207.672 168.219 208.312 158.25 208.312 143C208.312 138.991 208.269 135.35 208.191 132.047C203.197 132.147 197.247 131.719 192.613 131.294C188.808 130.951 185.244 129.283 182.543 126.582C179.842 123.881 178.174 120.317 177.831 116.513C177.312 110.856 176.784 103.238 177.228 97.7906ZM206.269 122.688C204.659 119.566 201.787 115.184 196.706 109.884C192.691 105.697 189.219 102.944 186.447 101.134C186.366 105.303 186.719 110.766 187.166 115.653C187.309 117.277 188.019 118.799 189.172 119.952C190.325 121.105 191.848 121.814 193.472 121.956C197.712 122.347 202.384 122.662 206.269 122.688ZM173.444 53.6063C173.603 54.9719 173.756 56.8625 173.85 59.4469C176.767 59.5969 179.375 59.7531 181.675 59.9156C192.675 60.675 201.394 69.0563 202.297 80.1688C202.52 82.8688 202.728 85.9917 202.922 89.5375C202.975 90.362 202.864 91.1889 202.595 91.9703C202.327 92.7516 201.906 93.472 201.357 94.0897C200.808 94.7073 200.142 95.2101 199.398 95.5688C198.654 95.9275 197.846 96.1351 197.021 96.1795C196.196 96.2239 195.37 96.1043 194.591 95.8275C193.813 95.5508 193.097 95.1224 192.485 94.5673C191.873 94.0121 191.377 93.3411 191.026 92.593C190.676 91.845 190.476 91.0348 190.441 90.2094C190.251 86.776 190.05 83.7677 189.838 81.1844C189.444 76.3531 185.769 72.7281 180.813 72.3844C178.469 72.2231 176.124 72.0815 173.778 71.9594C173.711 73.3584 173.6 74.755 173.444 76.1469C173.287 77.4656 172.553 78.5563 171.444 79.1219C170.888 79.3927 170.276 79.5277 169.657 79.5158C169.039 79.5038 168.433 79.3452 167.887 79.0531C165.959 78.0687 163.022 76.4469 158.931 73.8656C155.919 71.9687 153.822 70.3969 152.369 69.1531C151.031 68.0156 150.278 66.4906 150.278 64.8719C150.278 63.2594 151.031 61.7344 152.366 60.5969C153.822 59.3531 155.919 57.7844 158.928 55.8813C163.022 53.3031 165.959 51.6813 167.887 50.6969C169.041 50.1094 170.344 50.0719 171.441 50.6281C172.553 51.1906 173.291 52.2844 173.444 53.6063ZM79.2625 146.138C78.4438 146.196 77.6446 146.415 76.9107 146.783C76.1767 147.15 75.5223 147.659 74.9849 148.279C74.4475 148.9 74.0375 149.62 73.7784 150.399C73.5194 151.178 73.4163 152 73.475 152.819C73.55 153.873 73.626 154.876 73.7031 155.828C74.6094 166.941 83.3219 175.328 94.325 176.088C95.7688 176.188 97.3344 176.286 99.0219 176.384C99.1125 179.056 99.2687 181 99.4312 182.394C99.5875 183.716 100.322 184.806 101.431 185.372C102.531 185.931 103.837 185.891 104.987 185.303C106.919 184.319 109.853 182.697 113.944 180.116C116.956 178.219 119.053 176.647 120.506 175.403C121.844 174.266 122.597 172.741 122.597 171.125C122.597 169.509 121.841 167.984 120.509 166.844C119.053 165.603 116.956 164.031 113.947 162.134C109.853 159.553 106.916 157.931 104.987 156.947C104.442 156.655 103.836 156.496 103.218 156.484C102.599 156.472 101.987 156.607 101.431 156.878C100.322 157.441 99.5875 158.534 99.4312 159.856C99.2819 161.19 99.1735 162.528 99.1062 163.869C97.7996 163.792 96.4933 163.709 95.1875 163.619C90.2313 163.275 86.5563 159.647 86.1625 154.812C86.0849 153.851 86.012 152.89 85.9438 151.928C85.8851 151.109 85.6658 150.31 85.2983 149.576C84.9308 148.842 84.4223 148.188 83.8019 147.651C83.1814 147.113 82.4612 146.703 81.6824 146.444C80.9035 146.185 80.0812 146.079 79.2625 146.138Z" fill="url(#paint1_linear_57_93)"/>
</g>
<g opacity="0.49">
<path fill-rule="evenodd" clip-rule="evenodd" d="M96.75 57.6875C99.6146 57.6875 102.275 57.7219 104.731 57.7906C104.288 63.2375 104.813 70.8563 105.331 76.5156C105.675 80.3197 107.343 83.8825 110.044 86.5831C112.745 89.2836 116.308 90.9507 120.112 91.2937C124.747 91.7187 130.697 92.1469 135.691 92.0438C135.745 94.3 135.781 96.7198 135.8 99.3031C134.779 99.4031 133.825 99.5042 132.937 99.6062C121.728 100.912 113.259 109.669 112.125 120.75C111.541 126.478 110.959 135.231 110.837 147.978C106.145 148.209 101.448 148.32 96.75 148.312C85.0937 148.312 76.875 147.703 71.5219 147.081C64.7281 146.291 59.6437 141.05 58.9531 134.3C58.3281 128.219 57.6875 118.25 57.6875 103C57.6875 87.75 58.3312 77.7813 58.9531 71.7031C59.6406 64.95 64.7281 59.7094 71.5219 58.9219C76.8719 58.2937 85.0906 57.6875 96.75 57.6875ZM124.206 69.8844C129.287 75.1844 132.156 79.5625 133.766 82.6875C129.881 82.6625 125.209 82.3469 120.969 81.9562C119.345 81.8135 117.823 81.1035 116.671 79.951C115.518 78.7984 114.808 77.2768 114.666 75.6531C114.216 70.7656 113.863 65.3031 113.947 61.1344C116.716 62.9437 120.191 65.6969 124.206 69.8844ZM167.228 107.791C164.569 107.721 161.91 107.687 159.25 107.688C147.594 107.688 139.375 108.297 134.022 108.919C127.228 109.709 122.144 114.95 121.453 121.7C120.828 127.781 120.188 137.75 120.188 153C120.188 168.25 120.831 178.219 121.453 184.297C122.141 191.05 127.228 196.291 134.022 197.078C139.372 197.703 147.591 198.312 159.25 198.312C170.909 198.312 179.125 197.703 184.478 197.081C191.272 196.291 196.356 191.05 197.047 184.3C197.672 178.219 198.312 168.25 198.312 153C198.312 148.991 198.269 145.35 198.191 142.047C193.197 142.147 187.247 141.719 182.613 141.294C178.808 140.951 175.244 139.283 172.543 136.582C169.842 133.881 168.174 130.317 167.831 126.513C167.312 120.856 166.784 113.238 167.228 107.791ZM196.269 132.688C194.659 129.566 191.787 125.184 186.706 119.884C182.691 115.697 179.219 112.944 176.447 111.134C176.366 115.303 176.719 120.766 177.166 125.653C177.309 127.277 178.019 128.799 179.172 129.952C180.325 131.105 181.848 131.814 183.472 131.956C187.712 132.347 192.384 132.662 196.269 132.688ZM163.444 63.6063C163.603 64.9719 163.756 66.8625 163.85 69.4469C166.767 69.5969 169.375 69.7531 171.675 69.9156C182.675 70.675 191.394 79.0563 192.297 90.1688C192.52 92.8688 192.728 95.9917 192.922 99.5375C192.975 100.362 192.864 101.189 192.595 101.97C192.327 102.752 191.906 103.472 191.357 104.09C190.808 104.707 190.142 105.21 189.398 105.569C188.654 105.927 187.846 106.135 187.021 106.179C186.196 106.224 185.37 106.104 184.591 105.828C183.813 105.551 183.097 105.122 182.485 104.567C181.873 104.012 181.377 103.341 181.026 102.593C180.676 101.845 180.476 101.035 180.441 100.209C180.251 96.776 180.05 93.7677 179.838 91.1844C179.444 86.3531 175.769 82.7281 170.813 82.3844C168.469 82.2231 166.124 82.0815 163.778 81.9594C163.711 83.3584 163.6 84.755 163.444 86.1469C163.287 87.4656 162.553 88.5563 161.444 89.1219C160.888 89.3927 160.276 89.5277 159.657 89.5158C159.039 89.5038 158.433 89.3452 157.887 89.0531C155.959 88.0687 153.022 86.4469 148.931 83.8656C145.919 81.9687 143.822 80.3969 142.369 79.1531C141.031 78.0156 140.278 76.4906 140.278 74.8719C140.278 73.2594 141.031 71.7344 142.366 70.5969C143.822 69.3531 145.919 67.7844 148.928 65.8813C153.022 63.3031 155.959 61.6813 157.887 60.6969C159.041 60.1094 160.344 60.0719 161.441 60.6281C162.553 61.1906 163.291 62.2844 163.444 63.6063ZM69.2625 156.138C68.4438 156.196 67.6446 156.415 66.9107 156.783C66.1767 157.15 65.5223 157.659 64.9849 158.279C64.4475 158.9 64.0375 159.62 63.7784 160.399C63.5194 161.178 63.4163 162 63.475 162.819C63.55 163.873 63.626 164.876 63.7031 165.828C64.6094 176.941 73.3219 185.328 84.325 186.088C85.7688 186.188 87.3344 186.286 89.0219 186.384C89.1125 189.056 89.2687 191 89.4312 192.394C89.5875 193.716 90.3219 194.806 91.4313 195.372C92.5313 195.931 93.8375 195.891 94.9875 195.303C96.9187 194.319 99.8531 192.697 103.944 190.116C106.956 188.219 109.053 186.647 110.506 185.403C111.844 184.266 112.597 182.741 112.597 181.125C112.597 179.509 111.841 177.984 110.509 176.844C109.053 175.603 106.956 174.031 103.947 172.134C99.8531 169.553 96.9156 167.931 94.9875 166.947C94.4425 166.655 93.8359 166.496 93.2177 166.484C92.5994 166.472 91.9871 166.607 91.4313 166.878C90.3219 167.441 89.5875 168.534 89.4312 169.856C89.2819 171.19 89.1735 172.528 89.1062 173.869C87.7996 173.792 86.4933 173.709 85.1875 173.619C80.2313 173.275 76.5563 169.647 76.1625 164.812C76.0849 163.851 76.012 162.89 75.9438 161.928C75.8851 161.109 75.6658 160.31 75.2983 159.576C74.9308 158.842 74.4223 158.188 73.8019 157.651C73.1814 157.113 72.4612 156.703 71.6824 156.444C70.9035 156.185 70.0812 156.079 69.2625 156.138Z" fill="url(#paint2_linear_57_93)"/>
</g>
<path fill-rule="evenodd" clip-rule="evenodd" d="M86.75 67.6875C89.6146 67.6875 92.275 67.7219 94.7313 67.7906C94.2875 73.2375 94.8125 80.8563 95.3313 86.5156C95.6751 90.3197 97.3429 93.8825 100.044 96.5831C102.745 99.2836 106.308 100.951 110.112 101.294C114.747 101.719 120.697 102.147 125.691 102.044C125.745 104.3 125.781 106.72 125.8 109.303C124.779 109.403 123.825 109.504 122.937 109.606C111.728 110.912 103.259 119.669 102.125 130.75C101.541 136.478 100.959 145.231 100.837 157.978C96.1452 158.209 91.4479 158.32 86.75 158.312C75.0937 158.312 66.875 157.703 61.5219 157.081C54.7281 156.291 49.6437 151.05 48.9531 144.3C48.3281 138.219 47.6875 128.25 47.6875 113C47.6875 97.75 48.3312 87.7813 48.9531 81.7031C49.6406 74.95 54.7281 69.7094 61.5219 68.9219C66.8719 68.2937 75.0906 67.6875 86.75 67.6875ZM114.206 79.8844C119.287 85.1844 122.156 89.5625 123.766 92.6875C119.881 92.6625 115.209 92.3469 110.969 91.9562C109.345 91.8135 107.823 91.1035 106.671 89.951C105.518 88.7984 104.808 87.2768 104.666 85.6531C104.216 80.7656 103.863 75.3031 103.947 71.1344C106.716 72.9437 110.191 75.6969 114.206 79.8844ZM157.228 117.791C154.569 117.721 151.91 117.687 149.25 117.688C137.594 117.688 129.375 118.297 124.022 118.919C117.228 119.709 112.144 124.95 111.453 131.7C110.828 137.781 110.188 147.75 110.188 163C110.188 178.25 110.831 188.219 111.453 194.297C112.141 201.05 117.228 206.291 124.022 207.078C129.372 207.703 137.591 208.312 149.25 208.312C160.909 208.312 169.125 207.703 174.478 207.081C181.272 206.291 186.356 201.05 187.047 194.3C187.672 188.219 188.312 178.25 188.312 163C188.312 158.991 188.269 155.35 188.191 152.047C183.197 152.147 177.247 151.719 172.613 151.294C168.808 150.951 165.244 149.283 162.543 146.582C159.842 143.881 158.174 140.317 157.831 136.513C157.312 130.856 156.784 123.238 157.228 117.791ZM186.269 142.688C184.659 139.566 181.787 135.184 176.706 129.884C172.691 125.697 169.219 122.944 166.447 121.134C166.366 125.303 166.719 130.766 167.166 135.653C167.309 137.277 168.019 138.799 169.172 139.952C170.325 141.105 171.848 141.814 173.472 141.956C177.712 142.347 182.384 142.662 186.269 142.688ZM153.444 73.6063C153.603 74.9719 153.756 76.8625 153.85 79.4469C156.767 79.5969 159.375 79.7531 161.675 79.9156C172.675 80.675 181.394 89.0563 182.297 100.169C182.52 102.869 182.728 105.992 182.922 109.538C182.975 110.362 182.864 111.189 182.595 111.97C182.327 112.752 181.906 113.472 181.357 114.09C180.808 114.707 180.142 115.21 179.398 115.569C178.654 115.927 177.846 116.135 177.021 116.179C176.196 116.224 175.37 116.104 174.591 115.828C173.813 115.551 173.097 115.122 172.485 114.567C171.873 114.012 171.377 113.341 171.026 112.593C170.676 111.845 170.476 111.035 170.441 110.209C170.251 106.776 170.05 103.768 169.838 101.184C169.444 96.3531 165.769 92.7281 160.813 92.3844C158.469 92.2231 156.124 92.0815 153.778 91.9594C153.711 93.3584 153.6 94.755 153.444 96.1469C153.287 97.4656 152.553 98.5563 151.444 99.1219C150.888 99.3927 150.276 99.5277 149.657 99.5158C149.039 99.5038 148.433 99.3452 147.887 99.0531C145.959 98.0687 143.022 96.4469 138.931 93.8656C135.919 91.9687 133.822 90.3969 132.369 89.1531C131.031 88.0156 130.278 86.4906 130.278 84.8719C130.278 83.2594 131.031 81.7344 132.366 80.5969C133.822 79.3531 135.919 77.7844 138.928 75.8813C143.022 73.3031 145.959 71.6813 147.887 70.6969C149.041 70.1094 150.344 70.0719 151.441 70.6281C152.553 71.1906 153.291 72.2844 153.444 73.6063ZM59.2625 166.138C58.4438 166.196 57.6446 166.415 56.9107 166.783C56.1767 167.15 55.5223 167.659 54.9849 168.279C54.4475 168.9 54.0375 169.62 53.7784 170.399C53.5194 171.178 53.4163 172 53.475 172.819C53.55 173.873 53.626 174.876 53.7031 175.828C54.6094 186.941 63.3219 195.328 74.325 196.088C75.7688 196.188 77.3344 196.286 79.0219 196.384C79.1125 199.056 79.2687 201 79.4312 202.394C79.5875 203.716 80.3219 204.806 81.4313 205.372C82.5313 205.931 83.8375 205.891 84.9875 205.303C86.9187 204.319 89.8531 202.697 93.9438 200.116C96.9563 198.219 99.0531 196.647 100.506 195.403C101.844 194.266 102.597 192.741 102.597 191.125C102.597 189.509 101.841 187.984 100.509 186.844C99.0531 185.603 96.9562 184.031 93.9469 182.134C89.8531 179.553 86.9156 177.931 84.9875 176.947C84.4425 176.655 83.8359 176.496 83.2177 176.484C82.5994 176.472 81.9871 176.607 81.4313 176.878C80.3219 177.441 79.5875 178.534 79.4312 179.856C79.2819 181.19 79.1735 182.528 79.1062 183.869C77.7996 183.792 76.4933 183.709 75.1875 183.619C70.2313 183.275 66.5563 179.647 66.1625 174.812C66.0849 173.851 66.012 172.89 65.9438 171.928C65.8851 171.109 65.6658 170.31 65.2983 169.576C64.9308 168.842 64.4223 168.188 63.8019 167.651C63.1814 167.113 62.4612 166.703 61.6824 166.444C60.9035 166.185 60.0812 166.079 59.2625 166.138Z" fill="url(#paint3_linear_57_93)"/>
<defs>
<linearGradient id="paint0_linear_57_93" x1="128" y1="0" x2="128" y2="256" gradientUnits="userSpaceOnUse">
<stop stop-color="#333333"/>
<stop offset="1" stop-color="#141414"/>
</linearGradient>
<linearGradient id="paint1_linear_57_93" x1="138" y1="47.6875" x2="138" y2="188.312" gradientUnits="userSpaceOnUse">
<stop stop-color="#616777" stop-opacity="0.72"/>
<stop offset="1" stop-color="#4789D4"/>
</linearGradient>
<linearGradient id="paint2_linear_57_93" x1="128" y1="57.6875" x2="128" y2="198.312" gradientUnits="userSpaceOnUse">
<stop stop-color="#616777" stop-opacity="0.72"/>
<stop offset="1" stop-color="#4789D4"/>
</linearGradient>
<linearGradient id="paint3_linear_57_93" x1="118" y1="67.6875" x2="118" y2="208.312" gradientUnits="userSpaceOnUse">
<stop stop-color="#616777" stop-opacity="0.72"/>
<stop offset="1" stop-color="#4789D4"/>
</linearGradient>
</defs>
</svg>
