<svg width="256" height="256" viewBox="0 0 256 256" fill="none" xmlns="http://www.w3.org/2000/svg">
<g clip-path="url(#clip0_51_18)">
<path d="M0 120.107C0.179838 126.187 1.60774 132.165 4.19502 137.67C6.7823 143.174 10.4737 148.089 15.04 152.107C16.042 153.073 17.3817 153.608 18.7733 153.6C19.2641 153.718 19.7759 153.718 20.2667 153.6C21.2335 153.323 22.0999 152.774 22.7621 152.017C23.4243 151.26 23.8541 150.328 24 149.333C26.7395 135.648 31.2578 122.38 37.44 109.867L42.0267 101.12C42.4512 100.373 42.672 99.5265 42.6667 98.6668V56.0001C42.5368 53.213 41.3713 50.5747 39.3984 48.6017C37.4255 46.6288 34.7871 45.4633 32 45.3334C27.7229 45.0273 23.4301 45.6458 19.4133 47.1468C14.0584 48.8987 9.3491 52.2109 5.89001 56.6583C2.43091 61.1057 0.379822 66.4853 0 72.1068L0 120.107ZM219.733 112.853C218.77 112.496 217.723 112.424 216.719 112.647C215.716 112.87 214.798 113.379 214.077 114.111C213.356 114.844 212.861 115.769 212.654 116.776C212.446 117.783 212.534 118.829 212.907 119.787C220.376 138.653 224.422 158.7 224.853 178.987C224.937 188.584 223.46 198.131 220.48 207.253C220.129 208.288 220.105 209.406 220.41 210.455C220.715 211.505 221.335 212.435 222.187 213.12C223.057 213.745 224.102 214.081 225.173 214.081C226.245 214.081 227.29 213.745 228.16 213.12C237.318 207.81 244.78 200.008 249.677 190.623C254.574 181.238 256.705 170.655 255.822 160.106C254.939 149.557 251.079 139.475 244.69 131.034C238.301 122.594 229.646 116.141 219.733 112.427V112.853ZM122.667 247.893C170.24 247.893 208.853 226.56 208.853 178.88C208.311 158.935 203.966 139.277 196.053 120.96C195.727 120.25 195.254 119.617 194.666 119.102C194.078 118.587 193.387 118.203 192.64 117.973C191.861 117.759 191.043 117.724 190.248 117.872C189.454 118.02 188.703 118.346 188.053 118.827C176.702 126.713 163.153 130.819 149.333 130.56H96C82.1805 130.819 68.6313 126.713 57.28 118.827C56.1271 118.036 54.7099 117.73 53.3333 117.973C52.5665 118.189 51.8553 118.568 51.2479 119.083C50.6405 119.599 50.1512 120.239 49.8133 120.96C41.9004 139.277 37.556 158.935 37.0133 178.88C36.48 226.453 74.6667 247.893 122.667 247.893ZM122.667 141.227C126.03 141.189 129.319 142.218 132.059 144.168C134.8 146.118 136.852 148.887 137.919 152.076C138.986 155.266 139.014 158.712 137.998 161.919C136.983 165.125 134.976 167.927 132.267 169.92C131.858 170.2 131.375 170.35 130.88 170.35C130.385 170.35 129.902 170.2 129.493 169.92C129.036 169.726 128.649 169.398 128.382 168.979C128.115 168.56 127.982 168.07 128 167.573V162.347C128 160.932 127.438 159.576 126.438 158.576C125.438 157.575 124.081 157.013 122.667 157.013C121.252 157.013 119.896 157.575 118.895 158.576C117.895 159.576 117.333 160.932 117.333 162.347V167.573C117.351 168.07 117.218 168.56 116.951 168.979C116.685 169.398 116.297 169.726 115.84 169.92C115.432 170.2 114.948 170.35 114.453 170.35C113.958 170.35 113.475 170.2 113.067 169.92C110.358 167.927 108.351 165.125 107.335 161.919C106.319 158.712 106.347 155.266 107.414 152.076C108.481 148.887 110.533 146.118 113.274 144.168C116.015 142.218 119.303 141.189 122.667 141.227ZM178.667 8.85345C177.856 8.38535 176.936 8.13892 176 8.13892C175.064 8.13892 174.144 8.38535 173.333 8.85345L138.667 28.5868C138.432 28.6928 138.177 28.7476 137.92 28.7476C137.663 28.7476 137.408 28.6928 137.173 28.5868H108.907C108.688 28.6838 108.452 28.734 108.213 28.734C107.974 28.734 107.738 28.6838 107.52 28.5868L72.1067 9.38678C71.3078 8.88494 70.3834 8.61873 69.44 8.61873C68.4965 8.61873 67.5722 8.88494 66.7733 9.38678C65.9557 9.82101 65.2681 10.4646 64.7808 11.2517C64.2936 12.0389 64.0241 12.9413 64 13.8668V44.9068C64.0862 45.3291 64.0862 45.7645 64 46.1868C57.2007 54.1273 53.4231 64.2134 53.3333 74.6668C53.3658 80.1292 54.5137 85.5274 56.7068 90.5304C58.8998 95.5334 62.0918 100.036 66.0868 103.761C70.0819 107.486 74.7959 110.356 79.9397 112.195C85.0835 114.034 90.5486 114.802 96 114.453H149.333C154.785 114.802 160.25 114.034 165.394 112.195C170.537 110.356 175.251 107.486 179.246 103.761C183.242 100.036 186.433 95.5334 188.627 90.5304C190.82 85.5274 191.968 80.1292 192 74.6668C191.986 64.1031 188.204 53.8911 181.333 45.8668C181.247 45.4445 181.247 45.0091 181.333 44.5868V13.4401C181.35 12.5049 181.111 11.583 180.64 10.7744C180.17 9.96584 179.488 9.30147 178.667 8.85345ZM106.667 71.1468C105.811 71.6026 104.862 71.8579 103.893 71.8934C102.963 71.8878 102.05 71.6387 101.245 71.1709C100.44 70.7031 99.772 70.0328 99.3067 69.2268C97.8627 66.8117 95.8151 64.8139 93.3651 63.4299C90.9151 62.046 88.1472 61.3235 85.3333 61.3334C83.9188 61.3334 82.5623 60.7715 81.5621 59.7713C80.5619 58.7712 80 57.4146 80 56.0001C80 54.5856 80.5619 53.2291 81.5621 52.2289C82.5623 51.2287 83.9188 50.6668 85.3333 50.6668C89.9805 50.7264 94.5335 51.9851 98.5514 54.3211C102.569 56.657 105.916 59.991 108.267 64.0001C108.937 65.1767 109.145 66.5613 108.849 67.883C108.553 69.2047 107.775 70.3685 106.667 71.1468ZM160 61.3334C157.222 61.3602 154.498 62.1002 152.089 63.4823C149.679 64.8645 147.665 66.8426 146.24 69.2268C145.775 70.0328 145.106 70.7031 144.302 71.1709C143.497 71.6387 142.584 71.8878 141.653 71.8934C140.612 71.8913 139.587 71.635 138.667 71.1468C137.558 70.3685 136.78 69.2047 136.484 67.883C136.188 66.5613 136.396 65.1767 137.067 64.0001C139.418 59.991 142.764 56.657 146.782 54.3211C150.8 51.9851 155.353 50.7264 160 50.6668C161.414 50.6668 162.771 51.2287 163.771 52.2289C164.771 53.2291 165.333 54.5856 165.333 56.0001C165.333 57.4146 164.771 58.7712 163.771 59.7713C162.771 60.7715 161.414 61.3334 160 61.3334Z" fill="url(#paint0_linear_51_18)"/>
</g>
<defs>
<linearGradient id="paint0_linear_51_18" x1="128.008" y1="8.13892" x2="128.008" y2="247.893" gradientUnits="userSpaceOnUse">
<stop stop-color="#98BCFF"/>
<stop offset="1" stop-color="#B784FF"/>
</linearGradient>
<clipPath id="clip0_51_18">
<rect width="256" height="256" fill="white"/>
</clipPath>
</defs>
</svg>
