<svg width="256" height="256" viewBox="0 0 256 256" fill="none" xmlns="http://www.w3.org/2000/svg">
<rect width="256" height="256" rx="60" fill="url(#paint0_linear_57_35)"/>
<rect x="7.5" y="7.5" width="241" height="241" rx="52.5" stroke="white" stroke-opacity="0.02" stroke-width="15"/>
<g opacity="0.3">
<path d="M134.25 156.506L180.475 110.281C172.699 107.033 165.636 102.289 159.687 96.3188C153.715 90.369 148.968 83.3041 145.719 75.525L99.4937 121.75C95.8875 125.356 94.0812 127.163 92.5312 129.15C90.7024 131.497 89.1329 134.034 87.85 136.719C86.7687 138.994 85.9625 141.419 84.35 146.256L75.8375 171.775C75.4457 172.943 75.3876 174.198 75.6696 175.398C75.9517 176.597 76.5628 177.694 77.4342 178.566C78.3056 179.437 79.4028 180.048 80.6024 180.33C81.8021 180.612 83.0566 180.554 84.225 180.163L109.744 171.65C114.587 170.038 117.006 169.231 119.281 168.15C121.977 166.867 124.5 165.306 126.85 163.469C128.837 161.919 130.644 160.113 134.25 156.506ZM193.3 97.4563C197.909 92.8473 200.498 86.5962 200.498 80.0781C200.498 73.5601 197.909 67.309 193.3 62.7C188.691 58.091 182.44 55.5017 175.922 55.5017C169.404 55.5017 163.153 58.091 158.544 62.7L153 68.2438L153.237 68.9375C155.969 76.7549 160.439 83.8499 166.313 89.6875C172.325 95.7364 179.668 100.295 187.756 103L193.3 97.4563Z" fill="url(#paint1_linear_57_35)"/>
</g>
<g opacity="0.49">
<path d="M124.25 166.506L170.475 120.281C162.699 117.033 155.636 112.289 149.687 106.319C143.715 100.369 138.968 93.3041 135.719 85.525L89.4937 131.75C85.8875 135.356 84.0812 137.163 82.5312 139.15C80.7024 141.497 79.1329 144.034 77.85 146.719C76.7687 148.994 75.9625 151.419 74.35 156.256L65.8375 181.775C65.4457 182.943 65.3876 184.198 65.6696 185.398C65.9517 186.597 66.5628 187.694 67.4342 188.566C68.3056 189.437 69.4028 190.048 70.6024 190.33C71.8021 190.612 73.0566 190.554 74.225 190.163L99.7437 181.65C104.587 180.038 107.006 179.231 109.281 178.15C111.977 176.867 114.5 175.306 116.85 173.469C118.837 171.919 120.644 170.113 124.25 166.506ZM183.3 107.456C187.909 102.847 190.498 96.5962 190.498 90.0781C190.498 83.5601 187.909 77.309 183.3 72.7C178.691 68.091 172.44 65.5017 165.922 65.5017C159.404 65.5017 153.153 68.091 148.544 72.7L143 78.2438L143.237 78.9375C145.969 86.7549 150.439 93.8499 156.313 99.6875C162.325 105.736 169.668 110.295 177.756 113L183.3 107.456Z" fill="url(#paint2_linear_57_35)"/>
</g>
<path d="M114.25 176.506L160.475 130.281C152.699 127.033 145.636 122.289 139.687 116.319C133.715 110.369 128.968 103.304 125.719 95.525L79.4937 141.75C75.8875 145.356 74.0812 147.163 72.5312 149.15C70.7024 151.497 69.1329 154.034 67.85 156.719C66.7687 158.994 65.9625 161.419 64.35 166.256L55.8375 191.775C55.4457 192.943 55.3876 194.198 55.6696 195.398C55.9517 196.597 56.5628 197.694 57.4342 198.566C58.3056 199.437 59.4028 200.048 60.6024 200.33C61.8021 200.612 63.0566 200.554 64.225 200.163L89.7437 191.65C94.5875 190.038 97.0062 189.231 99.2812 188.15C101.977 186.867 104.5 185.306 106.85 183.469C108.837 181.919 110.644 180.113 114.25 176.506ZM173.3 117.456C177.909 112.847 180.498 106.596 180.498 100.078C180.498 93.5601 177.909 87.309 173.3 82.7C168.691 78.091 162.44 75.5017 155.922 75.5017C149.404 75.5017 143.153 78.091 138.544 82.7L133 88.2438L133.237 88.9375C135.969 96.7549 140.439 103.85 146.313 109.688C152.325 115.736 159.668 120.295 167.756 123L173.3 117.456Z" fill="url(#paint3_linear_57_35)"/>
<defs>
<linearGradient id="paint0_linear_57_35" x1="128" y1="0" x2="128" y2="256" gradientUnits="userSpaceOnUse">
<stop stop-color="#333333"/>
<stop offset="1" stop-color="#141414"/>
</linearGradient>
<linearGradient id="paint1_linear_57_35" x1="233.5" y1="101.5" x2="75" y2="105" gradientUnits="userSpaceOnUse">
<stop stop-color="#776161" stop-opacity="0.72"/>
<stop offset="1" stop-color="#E45454"/>
</linearGradient>
<linearGradient id="paint2_linear_57_35" x1="223.5" y1="111.5" x2="65" y2="115" gradientUnits="userSpaceOnUse">
<stop stop-color="#776161" stop-opacity="0.72"/>
<stop offset="1" stop-color="#E45454"/>
</linearGradient>
<linearGradient id="paint3_linear_57_35" x1="213.5" y1="121.5" x2="55" y2="125" gradientUnits="userSpaceOnUse">
<stop stop-color="#776161" stop-opacity="0.72"/>
<stop offset="1" stop-color="#E45454"/>
</linearGradient>
</defs>
</svg>
