<svg width="256" height="256" viewBox="0 0 256 256" fill="none" xmlns="http://www.w3.org/2000/svg">
<rect width="256" height="256" rx="60" fill="url(#paint0_linear_73_57)"/>
<rect x="7.5" y="7.5" width="241" height="241" rx="52.5" stroke="white" stroke-opacity="0.02" stroke-width="15"/>
<rect x="47" y="76" width="47.4074" height="47.4074" rx="7" fill="white"/>
<rect x="47" y="76" width="47.4074" height="47.4074" rx="7" fill="url(#paint1_linear_73_57)"/>
<rect x="47" y="133.407" width="47.4074" height="47.4074" rx="7" fill="white"/>
<rect x="47" y="133.407" width="47.4074" height="47.4074" rx="7" fill="url(#paint2_linear_73_57)"/>
<rect x="104.407" y="133.407" width="47.4074" height="47.4074" rx="7" fill="white"/>
<rect x="104.407" y="133.407" width="47.4074" height="47.4074" rx="7" fill="url(#paint3_linear_73_57)"/>
<rect x="104.407" y="76" width="47.4074" height="47.4074" rx="7" fill="white"/>
<rect x="104.407" y="76" width="47.4074" height="47.4074" rx="7" fill="url(#paint4_linear_73_57)"/>
<rect x="161.815" y="133.407" width="47.4074" height="47.4074" rx="7" fill="white"/>
<rect x="161.815" y="133.407" width="47.4074" height="47.4074" rx="7" fill="url(#paint5_linear_73_57)"/>
<rect x="161.815" y="76" width="47.4074" height="47.4074" rx="7" fill="white"/>
<rect x="161.815" y="76" width="47.4074" height="47.4074" rx="7" fill="url(#paint6_linear_73_57)"/>
<defs>
<linearGradient id="paint0_linear_73_57" x1="128" y1="0" x2="128" y2="256" gradientUnits="userSpaceOnUse">
<stop stop-color="#333333"/>
<stop offset="1" stop-color="#141414"/>
</linearGradient>
<linearGradient id="paint1_linear_73_57" x1="70.7037" y1="76" x2="70.7037" y2="123.407" gradientUnits="userSpaceOnUse">
<stop stop-color="#E681C8"/>
<stop offset="1" stop-color="#CE6565"/>
</linearGradient>
<linearGradient id="paint2_linear_73_57" x1="70.7037" y1="133.407" x2="70.7037" y2="180.815" gradientUnits="userSpaceOnUse">
<stop stop-color="#E681C8"/>
<stop offset="1" stop-color="#CE6565"/>
</linearGradient>
<linearGradient id="paint3_linear_73_57" x1="128.111" y1="133.407" x2="128.111" y2="180.815" gradientUnits="userSpaceOnUse">
<stop stop-color="#E681C8"/>
<stop offset="1" stop-color="#CE6565"/>
</linearGradient>
<linearGradient id="paint4_linear_73_57" x1="128.111" y1="76" x2="128.111" y2="123.407" gradientUnits="userSpaceOnUse">
<stop stop-color="#E681C8"/>
<stop offset="1" stop-color="#CE6565"/>
</linearGradient>
<linearGradient id="paint5_linear_73_57" x1="185.519" y1="133.407" x2="185.519" y2="180.815" gradientUnits="userSpaceOnUse">
<stop stop-color="#E681C8"/>
<stop offset="1" stop-color="#CE6565"/>
</linearGradient>
<linearGradient id="paint6_linear_73_57" x1="185.519" y1="76" x2="185.519" y2="123.407" gradientUnits="userSpaceOnUse">
<stop stop-color="#E681C8"/>
<stop offset="1" stop-color="#CE6565"/>
</linearGradient>
</defs>
</svg>
