<svg width="256" height="256" viewBox="0 0 256 256" fill="none" xmlns="http://www.w3.org/2000/svg">
<rect width="256" height="256" rx="60" fill="url(#paint0_linear_57_24)"/>
<rect x="7.5" y="7.5" width="241" height="241" rx="52.5" stroke="white" stroke-opacity="0.02" stroke-width="15"/>
<g opacity="0.3">
<path d="M147.667 123.667H209V169.667C209 173.883 207.5 177.494 204.5 180.5C201.499 183.505 197.888 185.005 193.667 185H147.667V123.667ZM147.667 108.333V47H193.667C197.883 47 201.494 48.5027 204.5 51.508C207.505 54.5133 209.005 58.1218 209 62.3333V108.333H147.667ZM132.333 108.333H71V62.3333C71 58.1167 72.5027 54.5082 75.508 51.508C78.5133 48.5078 82.1218 47.0051 86.3333 47H132.333V108.333ZM132.333 123.667V185H86.3333C82.1167 185 78.5082 183.5 75.508 180.5C72.5078 177.499 71.0051 173.888 71 169.667V123.667H132.333Z" fill="url(#paint1_linear_57_24)"/>
</g>
<g opacity="0.49">
<path d="M136.208 135.208H197.875V181.458C197.875 185.698 196.367 189.329 193.35 192.35C190.334 195.372 186.703 196.88 182.458 196.875H136.208V135.208ZM136.208 119.792V58.125H182.458C186.698 58.125 190.329 59.6358 193.35 62.6575C196.372 65.6792 197.88 69.3072 197.875 73.5417V119.792H136.208ZM120.792 119.792H59.125V73.5417C59.125 69.3021 60.6358 65.674 63.6575 62.6575C66.6792 59.641 70.3072 58.1301 74.5417 58.125H120.792V119.792ZM120.792 135.208V196.875H74.5417C70.3021 196.875 66.674 195.367 63.6575 192.35C60.641 189.334 59.1301 185.703 59.125 181.458V135.208H120.792Z" fill="url(#paint2_linear_57_24)"/>
</g>
<path d="M123.667 147.667H185V193.667C185 197.883 183.5 201.494 180.5 204.5C177.499 207.505 173.888 209.005 169.667 209H123.667V147.667ZM123.667 132.333V71H169.667C173.883 71 177.494 72.5027 180.5 75.508C183.505 78.5133 185.005 82.1218 185 86.3333V132.333H123.667ZM108.333 132.333H47V86.3333C47 82.1167 48.5027 78.5082 51.508 75.508C54.5133 72.5078 58.1218 71.0051 62.3333 71H108.333V132.333ZM108.333 147.667V209H62.3333C58.1167 209 54.5082 207.5 51.508 204.5C48.5078 201.499 47.0051 197.888 47 193.667V147.667H108.333Z" fill="url(#paint3_linear_57_24)"/>
<defs>
<linearGradient id="paint0_linear_57_24" x1="128" y1="0" x2="128" y2="256" gradientUnits="userSpaceOnUse">
<stop stop-color="#333333"/>
<stop offset="1" stop-color="#141414"/>
</linearGradient>
<linearGradient id="paint1_linear_57_24" x1="140" y1="47" x2="140" y2="185" gradientUnits="userSpaceOnUse">
<stop stop-color="#617277" stop-opacity="0.72"/>
<stop offset="1" stop-color="#86EDFF"/>
</linearGradient>
<linearGradient id="paint2_linear_57_24" x1="128.5" y1="58.125" x2="128.5" y2="196.875" gradientUnits="userSpaceOnUse">
<stop stop-color="#617277" stop-opacity="0.72"/>
<stop offset="1" stop-color="#86EDFF"/>
</linearGradient>
<linearGradient id="paint3_linear_57_24" x1="116" y1="71" x2="116" y2="209" gradientUnits="userSpaceOnUse">
<stop stop-color="#617277" stop-opacity="0.72"/>
<stop offset="1" stop-color="#86EDFF"/>
</linearGradient>
</defs>
</svg>
